<svg viewBox="0 0 640 400" xmlns="http://www.w3.org/2000/svg" font-family="sans-serif" font-size="12">
<rect width="640" height="400" fill="white"/>
<line x1="56" y1="344" x2="584" y2="344" stroke="#333"/>
<line x1="56" y1="56" x2="56" y2="344" stroke="#333"/>
<text x="320.0" y="386" text-anchor="middle">planted tag gap</text>
<text x="16" y="200.0" text-anchor="middle" transform="rotate(-90 16 200.0)">P(detection verdict)</text>
<text x="320.0" y="24" text-anchor="middle" font-size="13">Detection power of the committed kill rule (simulated, ICC=0.15)</text>
<text x="48" y="348.0" text-anchor="end">0.00</text>
<line x1="56" y1="344.0" x2="584" y2="344.0" stroke="#ddd" stroke-dasharray="3,3"/>
<text x="48" y="276.0" text-anchor="end">0.25</text>
<line x1="56" y1="272.0" x2="584" y2="272.0" stroke="#ddd" stroke-dasharray="3,3"/>
<text x="48" y="204.0" text-anchor="end">0.50</text>
<line x1="56" y1="200.0" x2="584" y2="200.0" stroke="#ddd" stroke-dasharray="3,3"/>
<text x="48" y="132.0" text-anchor="end">0.75</text>
<line x1="56" y1="128.0" x2="584" y2="128.0" stroke="#ddd" stroke-dasharray="3,3"/>
<text x="48" y="60.0" text-anchor="end">1.00</text>
<line x1="56" y1="56.0" x2="584" y2="56.0" stroke="#ddd" stroke-dasharray="3,3"/>
<text x="56.0" y="362" text-anchor="middle">0.10</text>
<text x="187.99999999999997" y="362" text-anchor="middle">0.15</text>
<text x="320.00000000000006" y="362" text-anchor="middle">0.20</text>
<text x="452.0" y="362" text-anchor="middle">0.25</text>
<text x="584.0" y="362" text-anchor="middle">0.30</text>
<path d="M56.0,279.2 L188.0,264.8 L320.0,238.4 L452.0,185.6 L584.0,164.0" fill="none" stroke="#5b8dd9" stroke-width="2"/>
<circle cx="56.0" cy="279.2" r="3" fill="#5b8dd9"/>
<circle cx="188.0" cy="264.8" r="3" fill="#5b8dd9"/>
<circle cx="320.0" cy="238.4" r="3" fill="#5b8dd9"/>
<circle cx="452.0" cy="185.6" r="3" fill="#5b8dd9"/>
<circle cx="584.0" cy="164.0" r="3" fill="#5b8dd9"/>
<text x="590" y="168.0" fill="#5b8dd9">n=10</text>
<path d="M56.0,300.8 L188.0,236.0 L320.0,214.4 L452.0,159.2 L584.0,128.0" fill="none" stroke="#d9a05b" stroke-width="2"/>
<circle cx="56.0" cy="300.8" r="3" fill="#d9a05b"/>
<circle cx="188.0" cy="236.0" r="3" fill="#d9a05b"/>
<circle cx="320.0" cy="214.4" r="3" fill="#d9a05b"/>
<circle cx="452.0" cy="159.2" r="3" fill="#d9a05b"/>
<circle cx="584.0" cy="128.0" r="3" fill="#d9a05b"/>
<text x="590" y="132.0" fill="#d9a05b">n=14</text>
<path d="M56.0,255.2 L188.0,214.4 L320.0,142.4 L452.0,104.0 L584.0,77.6" fill="none" stroke="#7bc47f" stroke-width="2"/>
<circle cx="56.0" cy="255.2" r="3" fill="#7bc47f"/>
<circle cx="188.0" cy="214.4" r="3" fill="#7bc47f"/>
<circle cx="320.0" cy="142.4" r="3" fill="#7bc47f"/>
<circle cx="452.0" cy="104.0" r="3" fill="#7bc47f"/>
<circle cx="584.0" cy="77.6" r="3" fill="#7bc47f"/>
<text x="590" y="81.59999999999997" fill="#7bc47f">n=30</text>
</svg>
